<svg width="240" height="240" viewBox="0 0 240 240" fill="none" xmlns="http://www.w3.org/2000/svg">
<rect width="240" height="240" rx="55" fill="#A5BEA1"/>
<path d="M58 184.035V219.794H69.9196V195.954H81.8391V184.035H141.437V172.115H153.357V160.196H165.276V136.357H177.196V124.437H189.115V88.6783H201.035V41H129.517V52.9196H117.598V64.8391H93.7587V76.7587H81.8391V88.6783H69.9196V112.517H58V160.196H69.9196V184.035H58Z" fill="black" fill-opacity="0.49"/>
<path d="M48 174.035V209.794H59.9196V185.954H71.8391V174.035H131.437V162.115H143.357V150.196H155.276V126.357H167.196V114.437H179.115V78.6783H191.035V31H119.517V42.9196H107.598V54.8391H83.7587V66.7587H71.8391V78.6783H59.9196V102.517H48V150.196H59.9196V174.035H48Z" fill="#142012"/>
<path d="M83.7587 150.196H59.9196V102.518H71.8391V78.6784H83.7587V66.7588H107.598V54.8392H119.517V42.9197H179.115V78.6784H167.196V114.437H155.276V126.357H143.357V150.196H131.437V162.115H83.7587V150.196Z" fill="#9ED345"/>
<path d="M83.7588 150.195V126.356H95.6784V114.437H107.598V90.5976H119.517V78.678H131.437V66.7584H143.357V54.8389H155.276V66.7584H143.357V78.678H131.437V90.5976H119.517V114.437H107.598V126.356H95.6784V150.195H83.7588Z" fill="#142012"/>
<path d="M71.8391 126.357H83.7587V150.196H59.9196V102.518H71.8391V126.357Z" fill="#508D45"/>
<path d="M83.7588 114.437V126.357H95.6784V114.437H83.7588Z" fill="#508D45"/>
<path d="M83.7588 90.5977V102.517H95.6784V90.5977H83.7588Z" fill="#508D45"/>
<path d="M155.276 54.8389V66.7584H167.196V54.8389H155.276Z" fill="#508D45"/>
<path d="M131.437 78.6785V90.598H143.357V78.6785H131.437Z" fill="#508D45"/>
<path d="M143.357 114.437V126.357H155.276V114.437H143.357Z" fill="#508D45"/>
<path d="M131.437 150.196H83.7588V162.115H131.437V150.196Z" fill="#508D45"/>
<path d="M131.437 150.196V126.356H143.357V150.196H131.437Z" fill="#508D45"/>
</svg>
