<svg width="159" height="199" viewBox="0 0 159 199" fill="none" xmlns="http://www.w3.org/2000/svg">
<rect width="159" height="199" fill="white"/>
<path d="M8 153.035V188.794H19.9196V164.954H31.8391V153.035H91.437V141.115H103.357V129.196H115.276V105.357H127.196V93.437H139.115V57.6783H151.035V10H79.5174V21.9196H67.5978V33.8391H43.7587V45.7587H31.8391V57.6783H19.9196V81.5174H8V129.196H19.9196V153.035H8Z" fill="#142012"/>
<path d="M43.7587 129.196H19.9196V81.5175H31.8391V57.6784H43.7587V45.7588H67.5978V33.8392H79.5174V21.9197H139.115V57.6784H127.196V93.4371H115.276V105.357H103.357V129.196H91.437V141.115H43.7587V129.196Z" fill="#9ED345"/>
<path d="M43.7588 129.195V105.356H55.6784V93.4367H67.5979V69.5976H79.5175V57.678H91.4371V45.7584H103.357V33.8389H115.276V45.7584H103.357V57.678H91.4371V69.5976H79.5175V93.4367H67.5979V105.356H55.6784V129.195H43.7588Z" fill="#142012"/>
<path d="M31.8391 105.357H43.7587V129.196H19.9196V81.5176H31.8391V105.357Z" fill="#508D45"/>
<path d="M43.7588 93.437V105.357H55.6784V93.437H43.7588Z" fill="#508D45"/>
<path d="M43.7588 69.5977V81.5172H55.6784V69.5977H43.7588Z" fill="#508D45"/>
<path d="M115.276 33.8389V45.7584H127.196V33.8389H115.276Z" fill="#508D45"/>
<path d="M91.437 57.6785V69.598H103.357V57.6785H91.437Z" fill="#508D45"/>
<path d="M103.357 93.437V105.357H115.276V93.437H103.357Z" fill="#508D45"/>
<path d="M91.4371 129.196H43.7588V141.115H91.4371V129.196Z" fill="#508D45"/>
<path d="M91.437 129.196V105.356H103.357V129.196H91.437Z" fill="#508D45"/>
</svg>
