<svg width="800" height="208" viewBox="0 0 800 208" fill="none" xmlns="http://www.w3.org/2000/svg">
<g clip-path="url(#clip0_61_28)">
<rect width="800" height="208" fill="white"/>
<path d="M9.2644 157.628V193.386H21.184V169.547H33.1035V157.628H92.7014V145.708H104.621V133.788H116.541V109.949H128.46V98.0298H140.38V62.271H152.299V14.5928H80.7818V26.5123H68.8622V38.4319H45.0231V50.3515H33.1035V62.271H21.184V86.1102H9.2644V133.788H21.184V157.628H9.2644Z" fill="#142012"/>
<path d="M45.0231 133.789H21.184V86.1103H33.1035V62.2712H45.0231V50.3516H68.8622V38.432H80.7818V26.5125H140.38V62.2712H128.46V98.0299H116.541V109.949H104.621V133.789H92.7014V145.708H45.0231V133.789Z" fill="#9ED345"/>
<path d="M45.0232 133.788V109.949H56.9428V98.0295H68.8623V74.1903H80.7819V62.2708H92.7015V50.3512H104.621V38.4316H116.541V50.3512H104.621V62.2708H92.7015V74.1903H80.7819V98.0295H68.8623V109.949H56.9428V133.788H45.0232Z" fill="#142012"/>
<path d="M33.1035 109.949H45.0231V133.789H21.184V86.1102H33.1035V109.949Z" fill="#508D45"/>
<path d="M45.0232 98.0299V109.949H56.9428V98.0299H45.0232Z" fill="#508D45"/>
<path d="M45.0232 74.1904V86.11H56.9428V74.1904H45.0232Z" fill="#508D45"/>
<path d="M116.541 38.4316V50.3512H128.46V38.4316H116.541Z" fill="#508D45"/>
<path d="M92.7014 62.2712V74.1908H104.621V62.2712H92.7014Z" fill="#508D45"/>
<path d="M104.621 98.0299V109.949H116.541V98.0299H104.621Z" fill="#508D45"/>
<path d="M92.7015 133.789H45.0232V145.708H92.7015V133.789Z" fill="#508D45"/>
<path d="M92.7014 133.788V109.949H104.621V133.788H92.7014Z" fill="#508D45"/>
<path d="M203.254 147.711V66.0024C203.254 58.3469 205.119 52.6543 208.849 48.9246C212.578 45.0969 218.369 43.183 226.221 43.183H251.985V57.3163H229.313C226.368 57.3163 224.209 58.1015 222.835 59.6718C221.461 61.1441 220.774 63.3033 220.774 66.1496V147.711H203.254ZM183.085 83.2274V69.0941H251.102V83.2274H183.085ZM305.811 149.477C298.45 149.477 291.972 147.809 286.377 144.472C280.881 141.135 276.612 136.375 273.569 130.191C270.526 124.008 269.005 116.745 269.005 108.402C269.005 100.06 270.526 92.7968 273.569 86.6135C276.612 80.4302 280.881 75.67 286.377 72.333C291.972 68.9959 298.45 67.3274 305.811 67.3274C313.172 67.3274 319.601 68.9959 325.097 72.333C330.691 75.67 335.01 80.4302 338.052 86.6135C341.095 92.6987 342.616 99.9616 342.616 108.402C342.616 116.745 341.095 124.008 338.052 130.191C335.01 136.375 330.691 141.135 325.097 144.472C319.601 147.809 313.172 149.477 305.811 149.477ZM305.811 133.872C311.798 133.872 316.411 131.663 319.65 127.247C322.888 122.732 324.508 116.451 324.508 108.402C324.508 100.354 322.888 94.1218 319.65 89.7052C316.411 85.1904 311.798 82.9329 305.811 82.9329C299.824 82.9329 295.211 85.1904 291.972 89.7052C288.733 94.1218 287.113 100.354 287.113 108.402C287.113 116.451 288.733 122.732 291.972 127.247C295.211 131.663 299.824 133.872 305.811 133.872ZM387.461 147.711V66.7385C387.461 63.7941 386.627 61.4876 384.959 59.8191C383.388 58.1506 381.082 57.3163 378.039 57.3163H360.52V43.183H380.689C388.639 43.183 394.626 45.2441 398.65 49.3663C402.773 53.3904 404.834 59.4265 404.834 67.4746V147.711H387.461ZM357.575 147.711V133.577H430.598V147.711H357.575ZM478.829 147.711V69.0941H496.201V147.711H478.829ZM448.796 147.711V133.577H521.818V147.711H448.796ZM450.268 83.2274V69.0941H493.698V83.2274H450.268ZM478.093 58.6413V42.1524H495.759V58.6413H478.093ZM559.744 149.477C554.836 149.477 550.42 148.594 546.494 146.827C542.568 145.061 539.427 142.558 537.071 139.319C534.716 135.982 533.538 132.056 533.538 127.541C533.538 120.867 535.599 115.714 539.721 112.083C543.942 108.353 549.978 105.654 557.83 103.986L582.416 98.8329C582.416 93.3366 581.238 89.1654 578.882 86.3191C576.625 83.3746 573.043 81.9024 568.135 81.9024C563.62 81.9024 560.136 82.982 557.682 85.1413C555.229 87.3005 553.609 90.1468 552.824 93.6802L534.716 92.6496C536.188 85.0922 539.82 79.007 545.61 74.3941C551.499 69.683 558.909 67.3274 567.841 67.3274C578.539 67.3274 586.538 70.1737 591.838 75.8663C597.138 81.5589 599.788 89.5089 599.788 99.7163V129.013C599.788 130.976 600.181 132.351 600.966 133.136C601.751 133.823 602.831 134.166 604.205 134.166H608.032V147.711C607.444 147.809 606.462 147.907 605.088 148.005C603.812 148.201 602.487 148.3 601.113 148.3C597.383 148.3 594.194 147.662 591.544 146.386C588.992 145.11 587.029 143.196 585.655 140.644C584.281 137.994 583.544 134.755 583.446 130.927H585.655C585.164 134.461 583.741 137.651 581.385 140.497C579.03 143.245 575.987 145.453 572.257 147.122C568.626 148.692 564.455 149.477 559.744 149.477ZM562.835 135.933C567.056 135.933 570.638 135.197 573.582 133.725C576.527 132.154 578.735 129.995 580.207 127.247C581.68 124.401 582.416 121.014 582.416 117.088V111.788L562.835 115.911C558.615 116.696 555.67 117.972 554.002 119.738C552.432 121.407 551.646 123.664 551.646 126.511C551.646 129.455 552.628 131.762 554.591 133.43C556.554 135.099 559.302 135.933 562.835 135.933ZM658.472 171.561C652.289 171.561 646.842 170.628 642.13 168.763C637.517 166.899 633.69 164.249 630.647 160.813C627.605 157.378 625.543 153.403 624.464 148.888L642.719 147.711C643.603 150.557 645.271 152.765 647.725 154.336C650.179 156.004 653.761 156.838 658.472 156.838C664.557 156.838 669.17 155.513 672.311 152.863C675.55 150.213 677.169 146.337 677.169 141.233V130.927C675.305 134.755 672.458 137.847 668.63 140.202C664.901 142.46 660.337 143.588 654.939 143.588C648.559 143.588 642.867 142.018 637.861 138.877C632.855 135.638 628.93 131.173 626.083 125.48C623.237 119.788 621.814 113.261 621.814 105.9C621.814 98.1459 623.188 91.4228 625.936 85.7302C628.782 79.9394 632.659 75.4246 637.567 72.1857C642.474 68.9468 648.117 67.3274 654.497 67.3274C659.895 67.3274 664.557 68.5543 668.483 71.008C672.507 73.4617 675.501 76.8478 677.464 81.1663L677.758 69.0941H694.542V139.613C694.542 146.582 693.069 152.422 690.125 157.133C687.18 161.942 683.009 165.525 677.611 167.88C672.213 170.334 665.833 171.561 658.472 171.561ZM658.472 129.013C663.968 129.013 668.434 127.001 671.869 122.977C675.305 118.953 677.071 113.163 677.169 105.605C677.169 100.6 676.384 96.3302 674.814 92.7968C673.342 89.2635 671.182 86.6135 668.336 84.8468C665.49 82.982 662.202 82.0496 658.472 82.0496C652.583 82.0496 648.019 84.1107 644.78 88.2329C641.542 92.257 639.922 98.0478 639.922 105.605C639.922 113.163 641.542 118.953 644.78 122.977C648.117 127.001 652.681 129.013 658.472 129.013ZM747.926 149.477C740.565 149.477 734.087 147.809 728.492 144.472C722.996 141.135 718.727 136.375 715.684 130.191C712.641 124.008 711.12 116.745 711.12 108.402C711.12 100.158 712.641 92.9931 715.684 86.9079C718.727 80.7246 722.947 75.9154 728.345 72.4802C733.841 69.045 740.27 67.3274 747.631 67.3274C754.698 67.3274 760.93 68.9959 766.328 72.333C771.825 75.67 776.094 80.4302 779.137 86.6135C782.278 92.7968 783.848 100.158 783.848 108.697V113.261H729.081C729.572 119.935 731.486 125.038 734.823 128.572C738.258 132.105 742.724 133.872 748.22 133.872C752.441 133.872 755.925 132.89 758.673 130.927C761.519 128.866 763.482 126.216 764.562 122.977L782.376 124.302C779.922 132.154 775.751 138.338 769.862 142.852C763.973 147.269 756.661 149.477 747.926 149.477ZM729.228 100.6H765.003C764.513 94.6126 762.697 90.1959 759.556 87.3496C756.416 84.4052 752.391 82.9329 747.484 82.9329C742.577 82.9329 738.503 84.4542 735.265 87.4968C732.124 90.4413 730.112 94.8089 729.228 100.6Z" fill="#142012"/>
</g>
<defs>
<clipPath id="clip0_61_28">
<rect width="800" height="208" fill="white"/>
</clipPath>
</defs>
</svg>
